spectral-regular.ufo
<glyph name="zero" format="2">
  <advance width="500"/>
  <unicode hex="0030"/>
  <outline>
    <contour>
      <point x="250" y="-10" type="curve" smooth="yes"/>
      <point x="377" y="-10"/>
      <point x="467" y="135"/>
      <point x="467" y="330" type="curve" smooth="yes"/>
      <point x="467" y="540"/>
      <point x="388" y="670"/>
      <point x="250" y="670" type="curve" smooth="yes"/>
      <point x="122" y="670"/>
      <point x="33" y="525"/>
      <point x="33" y="330" type="curve" smooth="yes"/>
      <point x="33" y="120"/>
      <point x="112" y="-10"/>
    </contour>
    <contour>
      <point x="271" y="37" type="curve" smooth="yes"/>
      <point x="174.0" y="37.0"/>
      <point x="125.0" y="161.0"/>
      <point x="125" y="363" type="curve" smooth="yes"/>
      <point x="125.0" y="513.0"/>
      <point x="165.0" y="624.0"/>
      <point x="233" y="624" type="curve" smooth="yes"/>
      <point x="327.0" y="624.0"/>
      <point x="375.0" y="500.0"/>
      <point x="375" y="299" type="curve" smooth="yes"/>
      <point x="375.0" y="148.0"/>
      <point x="337.0" y="37.0"/>
    </contour>
  </outline>
</glyph>
<glyph name="Q" format="2">
  <advance width="807.0"/>
  <unicode hex="0051"/>
  <outline>
    <contour>
      <point x="403" y="-10" type="curve" smooth="yes"/>
      <point x="595" y="-10"/>
      <point x="737" y="134"/>
      <point x="737" y="330" type="curve" smooth="yes"/>
      <point x="737" y="526"/>
      <point x="595" y="670"/>
      <point x="403" y="670" type="curve" smooth="yes"/>
      <point x="212" y="670"/>
      <point x="70" y="526"/>
      <point x="70" y="330" type="curve" smooth="yes"/>
      <point x="70" y="134"/>
      <point x="212" y="-10"/>
    </contour>
    <contour>
      <point x="424" y="40" type="curve" smooth="yes"/>
      <point x="281" y="40"/>
      <point x="167" y="168"/>
      <point x="167" y="363" type="curve" smooth="yes"/>
      <point x="167" y="521"/>
      <point x="258" y="621"/>
      <point x="386" y="621" type="curve" smooth="yes"/>
      <point x="528" y="621"/>
      <point x="640" y="494"/>
      <point x="640" y="299" type="curve" smooth="yes"/>
      <point x="640" y="141"/>
      <point x="552" y="40"/>
    </contour>
    <contour>
      <point x="682.0" y="-149.0" type="curve" smooth="yes"/>
      <point x="732.0" y="-149.0"/>
      <point x="776.0" y="-138.0"/>
      <point x="807.0" y="-122.0" type="curve"/>
      <point x="807.0" y="-106.0" type="line"/>
      <point x="792.0" y="-111.0"/>
      <point x="771" y="-115"/>
      <point x="743.0" y="-115.0" type="curve" smooth="yes"/>
      <point x="673" y="-115"/>
      <point x="606.0" y="-83.0"/>
      <point x="483.0" y="16.0" type="curve"/>
      <point x="347.0" y="16.0" type="line"/>
      <point x="515.0" y="-126.0"/>
      <point x="599.0" y="-149.0"/>
    </contour>
  </outline>
</glyph>
<glyph name="l" format="2">
  <advance width="294.0"/>
  <unicode hex="006C"/>
  <anchor x="147" y="765" name="top"/>
  <anchor x="313" y="740" name="right"/>
  <anchor x="295" y="300" name="mid"/>
  <anchor x="147" y="0.0" name="bottom"/>
  <outline>
    <contour>
      <point x="44" y="0" type="line"/>
      <point x="250" y="0" type="line"/>
      <point x="250" y="16" type="line"/>
      <point x="187" y="48" type="line"/>
      <point x="187" y="750" type="line"/>
      <point x="181" y="750" type="line"/>
      <point x="47" y="695" type="line"/>
      <point x="47" y="688" type="line"/>
      <point x="107" y="636" type="line"/>
      <point x="107" y="48" type="line"/>
      <point x="44" y="16" type="line"/>
    </contour>
  </outline>
</glyph>
<glyph name="eogonek" format="2">
  <advance width="484"/>
  <unicode hex="0119"/>
  <outline>
    <contour>
      <point x="259.0" y="-10.0" type="curve" smooth="yes"/>
      <point x="295.0" y="-10.0"/>
      <point x="328" y="-1"/>
      <point x="354" y="14" type="curve"/>
      <point x="357" y="24" type="line"/>
      <point x="297" y="-41"/>
      <point x="249.0" y="-98.0"/>
      <point x="249" y="-152" type="curve" smooth="yes"/>
      <point x="249" y="-205"/>
      <point x="290" y="-240"/>
      <point x="348" y="-240" type="curve" smooth="yes"/>
      <point x="387" y="-240"/>
      <point x="415" y="-223"/>
      <point x="433" y="-195" type="curve"/>
      <point x="433" y="-183" type="line"/>
      <point x="430" y="-183" type="line"/>
      <point x="412" y="-193"/>
      <point x="395" y="-195"/>
      <point x="380" y="-195" type="curve" smooth="yes"/>
      <point x="339" y="-195"/>
      <point x="315" y="-176"/>
      <point x="315" y="-130" type="curve" smooth="yes"/>
      <point x="315" y="-82"/>
      <point x="337.0" y="-30.0"/>
      <point x="387.0" y="37.0" type="curve"/>
      <point x="407.0" y="54.0"/>
      <point x="423.0" y="74.0"/>
      <point x="434.0" y="95.0" type="curve"/>
      <point x="434.0" y="105.0" type="line"/>
      <point x="431.0" y="105.0" type="line"/>
      <point x="381.0" y="78.0"/>
      <point x="339.0" y="65.0"/>
      <point x="302.0" y="65.0" type="curve" smooth="yes"/>
      <point x="171.0" y="65.0"/>
      <point x="129.0" y="155.0"/>
      <point x="129.0" y="251.0" type="curve" smooth="yes"/>
      <point x="129.0" y="355.0"/>
      <point x="174.0" y="416.0"/>
      <point x="247.0" y="416.0" type="curve" smooth="yes"/>
      <point x="306.0" y="416.0"/>
      <point x="343.0" y="377.0"/>
      <point x="358.0" y="284.0" type="curve"/>
      <point x="376.0" y="288.0" type="line"/>
      <point x="119.0" y="288.0" type="line"/>
      <point x="119.0" y="242.0" type="line"/>
      <point x="428.0" y="242.0" type="line"/>
      <point x="433.0" y="247.0" type="line"/>
      <point x="433.0" y="384.0"/>
      <point x="368.0" y="460.0"/>
      <point x="263.0" y="460.0" type="curve" smooth="yes"/>
      <point x="150.0" y="460.0"/>
      <point x="50.0" y="354.0"/>
      <point x="50.0" y="205.0" type="curve" smooth="yes"/>
      <point x="50.0" y="75.0"/>
      <point x="130.0" y="-10.0"/>
    </contour>
  </outline>
</glyph>
<glyph name="idotless" format="2">
  <advance width="313"/>
  <unicode hex="0131"/>
  <anchor x="157.0" y="510.0" name="top"/>
  <anchor x="157.0" y="0.0" name="bottom"/>
  <anchor x="170.0" y="0.0" name="right"/>
  <outline>
    <contour>
      <point x="54" y="0" type="line"/>
      <point x="260" y="0" type="line"/>
      <point x="260" y="16" type="line"/>
      <point x="197" y="48" type="line"/>
      <point x="197" y="460" type="line"/>
      <point x="191" y="460" type="line"/>
      <point x="57" y="405" type="line"/>
      <point x="57" y="398" type="line"/>
      <point x="117" y="346" type="line"/>
      <point x="117" y="48" type="line"/>
      <point x="54" y="16" type="line"/>
    </contour>
  </outline>
</glyph>
<glyph name="gravecomb" format="2">
  <unicode hex="0300"/>
  <anchor x="78.0" y="510.0" name="_top"/>
  <outline>
    <contour>
      <point x="73" y="530" type="line"/>
      <point x="84" y="530" type="line"/>
      <point x="-3" y="707" type="line"/>
      <point x="-85" y="707" type="line"/>
      <point x="-85" y="687"/>
      <point x="-79" y="668"/>
      <point x="-52" y="644" type="curve" smooth="yes"/>
    </contour>
  </outline>
</glyph>
<glyph name="acutecomb" format="2">
  <unicode hex="0301"/>
  <anchor x="-85.0" y="510.0" name="_top"/>
  <outline>
    <contour>
      <point x="-85" y="530" type="line"/>
      <point x="-74" y="530" type="line"/>
      <point x="51" y="644" type="line" smooth="yes"/>
      <point x="78" y="668"/>
      <point x="84" y="687"/>
      <point x="84" y="707" type="curve"/>
      <point x="2" y="707" type="line"/>
    </contour>
  </outline>
</glyph>
<glyph name="macroncomb" format="2">
  <unicode hex="0304"/>
  <anchor x="0.0" y="510.0" name="_top"/>
  <outline>
    <contour>
      <point x="-133" y="592" type="line"/>
      <point x="133" y="592" type="line"/>
      <point x="133" y="642" type="line"/>
      <point x="-133" y="642" type="line"/>
    </contour>
  </outline>
</glyph>
<glyph name="dotbelowcomb" format="2">
  <unicode hex="0323"/>
  <anchor x="0.0" y="0.0" name="_bottom"/>
  <outline>
    <contour>
      <point x="0" y="-212" type="curve" smooth="yes"/>
      <point x="33" y="-212"/>
      <point x="60" y="-185"/>
      <point x="60" y="-152" type="curve" smooth="yes"/>
      <point x="60" y="-119"/>
      <point x="33" y="-92"/>
      <point x="0" y="-92" type="curve" smooth="yes"/>
      <point x="-33" y="-92"/>
      <point x="-60" y="-119"/>
      <point x="-60" y="-152" type="curve" smooth="yes"/>
      <point x="-60" y="-185"/>
      <point x="-33" y="-212"/>
    </contour>
  </outline>
</glyph>
<glyph name="uni0402" format="2">
  <advance width="786.0"/>
  <unicode hex="0402"/>
  <outline>
    <contour>
      <point x="172" y="0" type="line"/>
      <point x="462" y="0" type="line"/>
      <point x="462" y="16" type="line"/>
      <point x="362" y="56" type="line"/>
      <point x="362" y="605" type="line"/>
      <point x="535" y="605" type="line"/>
      <point x="603" y="468" type="line"/>
      <point x="619" y="468" type="line"/>
      <point x="619" y="660" type="line"/>
      <point x="45" y="660" type="line"/>
      <point x="45" y="458" type="line"/>
      <point x="61" y="458" type="line"/>
      <point x="129" y="605" type="line"/>
      <point x="272" y="605" type="line"/>
      <point x="272" y="56" type="line"/>
      <point x="172" y="16" type="line"/>
    </contour>
    <contour>
      <point x="716" y="195" type="curve" smooth="yes"/>
      <point x="716" y="353"/>
      <point x="640.0" y="390.0"/>
      <point x="547" y="390" type="curve" smooth="yes"/>
      <point x="473" y="390"/>
      <point x="404" y="362"/>
      <point x="358" y="316" type="curve"/>
      <point x="358" y="272" type="line"/>
      <point x="397" y="302"/>
      <point x="444" y="316"/>
      <point x="489" y="316" type="curve" smooth="yes"/>
      <point x="588.0" y="316.0"/>
      <point x="626" y="276"/>
      <point x="626" y="166" type="curve" smooth="yes"/>
      <point x="626" y="51" type="line" smooth="yes"/>
      <point x="626" y="-83"/>
      <point x="599" y="-100"/>
      <point x="556" y="-100" type="curve" smooth="yes"/>
      <point x="538" y="-100"/>
      <point x="528" y="-97"/>
      <point x="505" y="-91" type="curve"/>
      <point x="499" y="-91" type="line"/>
      <point x="489" y="-139"/>
      <point x="489" y="-142"/>
      <point x="489" y="-145" type="curve" smooth="yes"/>
      <point x="489" y="-166"/>
      <point x="505" y="-173"/>
      <point x="522" y="-173" type="curve" smooth="yes"/>
      <point x="562" y="-173"/>
      <point x="579" y="-163"/>
      <point x="637" y="-99" type="curve" smooth="yes"/>
      <point x="690" y="-41"/>
      <point x="716" y="83"/>
    </contour>
  </outline>
</glyph>
<glyph name="uni0409" format="2">
  <advance width="958"/>
  <unicode hex="0409"/>
  <outline>
    <contour>
      <point x="200" y="605" type="line"/>
      <point x="500" y="605" type="line"/>
      <point x="500" y="660" type="line"/>
      <point x="200" y="660" type="line"/>
    </contour>
    <contour>
      <point x="245" y="556" type="curve" smooth="yes"/>
      <point x="245" y="660" type="line"/>
      <point x="105" y="660" type="line"/>
      <point x="105" y="644" type="line"/>
      <point x="185" y="604" type="line"/>
      <point x="185" y="556" type="line" smooth="yes"/>
      <point x="185" y="262"/>
      <point x="158" y="78"/>
      <point x="51" y="78" type="curve" smooth="yes"/>
      <point x="41" y="78" type="line"/>
      <point x="37" y="74" type="line"/>
      <point x="37" y="19" type="line" smooth="yes"/>
      <point x="37" y="-3"/>
      <point x="41" y="-10"/>
      <point x="71" y="-10" type="curve" smooth="yes"/>
      <point x="108" y="-10"/>
      <point x="154" y="9"/>
      <point x="189" y="91" type="curve" smooth="yes"/>
      <point x="231" y="192"/>
      <point x="245" y="334"/>
    </contour>
    <contour>
      <point x="651" y="0" type="line" smooth="yes"/>
      <point x="819" y="0"/>
      <point x="926" y="86"/>
      <point x="926" y="202" type="curve" smooth="yes"/>
      <point x="926" y="314"/>
      <point x="820" y="388"/>
      <point x="652" y="388" type="curve" smooth="yes"/>
      <point x="500" y="388" type="line"/>
      <point x="500" y="333" type="line"/>
      <point x="643" y="333" type="line" smooth="yes"/>
      <point x="772" y="333"/>
      <point x="829" y="291"/>
      <point x="829" y="194" type="curve" smooth="yes"/>
      <point x="829" y="112"/>
      <point x="771" y="55"/>
      <point x="650" y="55" type="curve" smooth="yes"/>
      <point x="520" y="55" type="line"/>
      <point x="520" y="0" type="line"/>
    </contour>
    <contour>
      <point x="645" y="660" type="line"/>
      <point x="455" y="660" type="line"/>
      <point x="455" y="56" type="line"/>
      <point x="375" y="16" type="line"/>
      <point x="375" y="0" type="line"/>
      <point x="545" y="0" type="line"/>
      <point x="545" y="604" type="line"/>
      <point x="645" y="644" type="line"/>
    </contour>
  </outline>
</glyph>
<glyph name="uni040A" format="2">
  <advance width="1038"/>
  <unicode hex="040A"/>
  <outline>
    <contour>
      <point x="65" y="0" type="line"/>
      <point x="315" y="0" type="line"/>
      <point x="315" y="16" type="line"/>
      <point x="235" y="56" type="line"/>
      <point x="235" y="604" type="line"/>
      <point x="315" y="644" type="line"/>
      <point x="315" y="660" type="line"/>
      <point x="65" y="660" type="line"/>
      <point x="65" y="644" type="line"/>
      <point x="145" y="604" type="line"/>
      <point x="145" y="56" type="line"/>
      <point x="65" y="16" type="line"/>
    </contour>
    <contour>
      <point x="190" y="323" type="line"/>
      <point x="580" y="323" type="line"/>
      <point x="580" y="378" type="line"/>
      <point x="190" y="378" type="line"/>
    </contour>
    <contour>
      <point x="731" y="0" type="line" smooth="yes"/>
      <point x="899" y="0"/>
      <point x="1006" y="84"/>
      <point x="1006" y="197" type="curve" smooth="yes"/>
      <point x="1006" y="306"/>
      <point x="900" y="378"/>
      <point x="732" y="378" type="curve" smooth="yes"/>
      <point x="580" y="378" type="line"/>
      <point x="580" y="323" type="line"/>
      <point x="723" y="323" type="line" smooth="yes"/>
      <point x="852" y="323"/>
      <point x="909" y="283"/>
      <point x="909" y="189" type="curve" smooth="yes"/>
      <point x="909" y="110"/>
      <point x="851" y="55"/>
      <point x="730" y="55" type="curve" smooth="yes"/>
      <point x="600" y="55" type="line"/>
      <point x="600" y="0" type="line"/>
    </contour>
    <contour>
      <point x="725" y="660" type="line"/>
      <point x="455" y="660" type="line"/>
      <point x="455" y="644" type="line"/>
      <point x="535" y="604" type="line"/>
      <point x="535" y="56" type="line"/>
      <point x="455" y="16" type="line"/>
      <point x="455" y="0" type="line"/>
      <point x="625" y="0" type="line"/>
      <point x="625" y="604" type="line"/>
      <point x="725" y="644" type="line"/>
    </contour>
  </outline>
</glyph>
<glyph name="uni040B" format="2">
  <advance width="821.0"/>
  <unicode hex="040B"/>
  <outline>
    <contour>
      <point x="172" y="0" type="line"/>
      <point x="462" y="0" type="line"/>
      <point x="462" y="16" type="line"/>
      <point x="362" y="56" type="line"/>
      <point x="362" y="605" type="line"/>
      <point x="535" y="605" type="line"/>
      <point x="603" y="468" type="line"/>
      <point x="619" y="468" type="line"/>
      <point x="619" y="660" type="line"/>
      <point x="45" y="660" type="line"/>
      <point x="45" y="458" type="line"/>
      <point x="61" y="458" type="line"/>
      <point x="129" y="605" type="line"/>
      <point x="272" y="605" type="line"/>
      <point x="272" y="56" type="line"/>
      <point x="172" y="16" type="line"/>
    </contour>
    <contour>
      <point x="796" y="0" type="line"/>
      <point x="796" y="16" type="line"/>
      <point x="716" y="56" type="line"/>
      <point x="716" y="195" type="line" smooth="yes"/>
      <point x="716" y="338.0"/>
      <point x="645.0" y="390.0"/>
      <point x="541" y="390" type="curve" smooth="yes"/>
      <point x="473" y="390"/>
      <point x="404" y="362"/>
      <point x="358" y="316" type="curve"/>
      <point x="358" y="272" type="line"/>
      <point x="397" y="302"/>
      <point x="444" y="316"/>
      <point x="489" y="316" type="curve" smooth="yes"/>
      <point x="588.0" y="316.0"/>
      <point x="626" y="276.0"/>
      <point x="626" y="166" type="curve" smooth="yes"/>
      <point x="626" y="0" type="line"/>
    </contour>
  </outline>
</glyph>
<glyph name="uni0414" format="2">
  <advance width="724"/>
  <unicode hex="0414"/>
  <outline>
    <contour>
      <point x="190" y="605" type="line"/>
      <point x="530" y="605" type="line"/>
      <point x="530" y="660" type="line"/>
      <point x="190" y="660" type="line"/>
    </contour>
    <contour>
      <point x="159" y="41" type="line"/>
      <point x="216" y="186"/>
      <point x="235" y="331"/>
      <point x="235" y="556" type="curve" smooth="yes"/>
      <point x="235" y="660" type="line"/>
      <point x="95" y="660" type="line"/>
      <point x="95" y="644" type="line"/>
      <point x="175" y="604" type="line"/>
      <point x="175" y="556" type="line" smooth="yes"/>
      <point x="175" y="333.0"/>
      <point x="155" y="186"/>
      <point x="94" y="41" type="curve"/>
    </contour>
    <contour>
      <point x="485" y="55" type="line"/>
      <point x="25" y="55" type="line"/>
      <point x="25" y="-167" type="line"/>
      <point x="41" y="-167" type="line"/>
      <point x="119" y="0" type="line"/>
      <point x="575" y="0" type="line"/>
      <point x="653" y="-167" type="line"/>
      <point x="669" y="-167" type="line"/>
      <point x="669" y="55" type="line"/>
      <point x="575" y="55" type="line"/>
      <point x="575" y="604" type="line"/>
      <point x="655" y="644" type="line"/>
      <point x="655" y="660" type="line"/>
      <point x="485" y="660" type="line"/>
    </contour>
  </outline>
</glyph>
<glyph name="uni0417" format="2">
  <advance width="649.0"/>
  <unicode hex="0417"/>
  <outline>
    <contour>
      <point x="323" y="670" type="curve" smooth="yes"/>
      <point x="223.0" y="670.0"/>
      <point x="170.0" y="652.0"/>
      <point x="115" y="625" type="curve"/>
      <point x="110" y="450" type="line"/>
      <point x="128" y="450" type="line"/>
      <point x="204" y="602" type="line"/>
      <point x="168" y="557" type="line"/>
      <point x="217" y="608"/>
      <point x="258.0" y="620.0"/>
      <point x="319" y="620" type="curve" smooth="yes"/>
      <point x="409" y="620"/>
      <point x="447" y="569"/>
      <point x="447" y="489" type="curve" smooth="yes"/>
      <point x="447.0" y="416.0"/>
      <point x="389.5165562913907" y="368"/>
      <point x="292" y="368" type="curve" smooth="yes"/>
      <point x="221" y="368" type="line"/>
      <point x="221" y="313" type="line"/>
      <point x="311" y="313" type="line" smooth="yes"/>
      <point x="427.0" y="313"/>
      <point x="485.0" y="270.0"/>
      <point x="485" y="181" type="curve" smooth="yes"/>
      <point x="485.0" y="104.0"/>
      <point x="431.0" y="45.0"/>
      <point x="321" y="45" type="curve" smooth="yes"/>
      <point x="224.0" y="45.0"/>
      <point x="187.0" y="77.0"/>
      <point x="146" y="106" type="curve"/>
      <point x="184" y="62" type="line"/>
      <point x="107" y="198" type="line"/>
      <point x="90" y="198" type="line"/>
      <point x="101" y="39" type="line"/>
      <point x="158.0" y="11.0"/>
      <point x="217.0" y="-10.0"/>
      <point x="322" y="-10" type="curve" smooth="yes"/>
      <point x="479.0" y="-10.0"/>
      <point x="582.0" y="78.0"/>
      <point x="582" y="189" type="curve" smooth="yes"/>
      <point x="582.0" y="290.98275862068965"/>
      <point x="489.0" y="358.0"/>
      <point x="337" y="358" type="curve"/>
      <point x="329" y="343" type="line"/>
      <point x="466.0" y="343.0"/>
      <point x="544.0" y="428.4556213017751"/>
      <point x="544" y="517" type="curve" smooth="yes"/>
      <point x="544" y="616"/>
      <point x="446" y="670"/>
    </contour>
  </outline>
</glyph>
<glyph name="uni041B" format="2">
  <advance width="720"/>
  <unicode hex="041B"/>
  <outline>
    <contour>
      <point x="200" y="605" type="line"/>
      <point x="530" y="605" type="line"/>
      <point x="530" y="660" type="line"/>
      <point x="200" y="660" type="line"/>
    </contour>
    <contour>
      <point x="405" y="0" type="line"/>
      <point x="655" y="0" type="line"/>
      <point x="655" y="16" type="line"/>
      <point x="575" y="56" type="line"/>
      <point x="575" y="604" type="line"/>
      <point x="655" y="644" type="line"/>
      <point x="655" y="660" type="line"/>
      <point x="485" y="660" type="line"/>
      <point x="485" y="56" type="line"/>
      <point x="405" y="16" type="line"/>
    </contour>
    <contour>
      <point x="245" y="556" type="curve" smooth="yes"/>
      <point x="245" y="660" type="line"/>
      <point x="105" y="660" type="line"/>
      <point x="105" y="644" type="line"/>
      <point x="185" y="604" type="line"/>
      <point x="185" y="556" type="line" smooth="yes"/>
      <point x="185" y="262"/>
      <point x="158" y="78"/>
      <point x="51" y="78" type="curve" smooth="yes"/>
      <point x="41" y="78" type="line"/>
      <point x="37" y="74" type="line"/>
      <point x="37" y="19" type="line" smooth="yes"/>
      <point x="37" y="-3"/>
      <point x="41" y="-10"/>
      <point x="71" y="-10" type="curve" smooth="yes"/>
      <point x="108" y="-10"/>
      <point x="154" y="9"/>
      <point x="189" y="91" type="curve" smooth="yes"/>
      <point x="231" y="192"/>
      <point x="245" y="334"/>
    </contour>
  </outline>
</glyph>
<glyph name="uni0423" format="2">
  <advance width="710"/>
  <unicode hex="0423"/>
  <outline>
    <contour>
      <point x="347" y="185" type="line"/>
      <point x="314" y="112"/>
      <point x="279" y="78"/>
      <point x="195" y="78" type="curve" smooth="yes"/>
      <point x="185" y="78" type="line"/>
      <point x="181" y="74" type="line"/>
      <point x="181" y="19" type="line" smooth="yes"/>
      <point x="181" y="-3"/>
      <point x="185" y="-10"/>
      <point x="215" y="-10" type="curve" smooth="yes"/>
      <point x="245.2020202020202" y="-10.0"/>
      <point x="283" y="-5"/>
      <point x="324" y="43" type="curve" smooth="yes"/>
      <point x="357" y="81"/>
      <point x="386.0" y="129.0"/>
      <point x="422.0" y="202.0" type="curve"/>
      <point x="635" y="632" type="line"/>
      <point x="612" y="605" type="line"/>
      <point x="685" y="644" type="line"/>
      <point x="685" y="660" type="line"/>
      <point x="475" y="660" type="line"/>
      <point x="475" y="644" type="line"/>
      <point x="557" y="610" type="line"/>
      <point x="557" y="606" type="line"/>
      <point x="359" y="199" type="line"/>
      <point x="401" y="259" type="line"/>
      <point x="356" y="259" type="line"/>
      <point x="389" y="224" type="line"/>
      <point x="199" y="602" type="line"/>
      <point x="199" y="607" type="line"/>
      <point x="285" y="644" type="line"/>
      <point x="285" y="660" type="line"/>
      <point x="35" y="660" type="line"/>
      <point x="35" y="644" type="line"/>
      <point x="144" y="588" type="line"/>
      <point x="94" y="632" type="line"/>
      <point x="339" y="145" type="line"/>
    </contour>
  </outline>
</glyph>
<glyph name="uni042A" format="2">
  <advance width="728"/>
  <unicode hex="042A"/>
  <outline>
    <contour>
      <point x="421" y="0" type="line" smooth="yes"/>
      <point x="589" y="0"/>
      <point x="696" y="86"/>
      <point x="696" y="202" type="curve" smooth="yes"/>
      <point x="696" y="314"/>
      <point x="590" y="388"/>
      <point x="422" y="388" type="curve" smooth="yes"/>
      <point x="270" y="388" type="line"/>
      <point x="270" y="333" type="line"/>
      <point x="413" y="333" type="line" smooth="yes"/>
      <point x="542" y="333"/>
      <point x="599" y="291"/>
      <point x="599" y="194" type="curve" smooth="yes"/>
      <point x="599" y="112"/>
      <point x="541" y="55"/>
      <point x="420" y="55" type="curve" smooth="yes"/>
      <point x="290" y="55" type="line"/>
      <point x="290" y="0" type="line"/>
    </contour>
    <contour>
      <point x="415" y="660" type="line"/>
      <point x="225" y="660" type="line"/>
      <point x="225" y="56" type="line"/>
      <point x="145" y="16" type="line"/>
      <point x="145" y="0" type="line"/>
      <point x="315" y="0" type="line"/>
      <point x="315" y="604" type="line"/>
      <point x="415" y="644" type="line"/>
    </contour>
    <contour>
      <point x="272" y="605" type="line"/>
      <point x="274" y="660" type="line"/>
      <point x="25" y="660" type="line"/>
      <point x="25" y="458" type="line"/>
      <point x="41" y="458" type="line"/>
      <point x="109" y="605" type="line"/>
    </contour>
  </outline>
</glyph>
<glyph name="uni042C" format="2">
  <advance width="648"/>
  <unicode hex="042C"/>
  <outline>
    <contour>
      <point x="341" y="0" type="line" smooth="yes"/>
      <point x="509" y="0"/>
      <point x="616" y="86"/>
      <point x="616" y="202" type="curve" smooth="yes"/>
      <point x="616" y="314"/>
      <point x="510" y="388"/>
      <point x="342" y="388" type="curve" smooth="yes"/>
      <point x="190" y="388" type="line"/>
      <point x="190" y="333" type="line"/>
      <point x="333" y="333" type="line" smooth="yes"/>
      <point x="462" y="333"/>
      <point x="519" y="291"/>
      <point x="519" y="194" type="curve" smooth="yes"/>
      <point x="519" y="112"/>
      <point x="461" y="55"/>
      <point x="340" y="55" type="curve" smooth="yes"/>
      <point x="210" y="55" type="line"/>
      <point x="210" y="0" type="line"/>
    </contour>
    <contour>
      <point x="335" y="660" type="line"/>
      <point x="65" y="660" type="line"/>
      <point x="65" y="644" type="line"/>
      <point x="145" y="604" type="line"/>
      <point x="145" y="56" type="line"/>
      <point x="65" y="16" type="line"/>
      <point x="65" y="0" type="line"/>
      <point x="235" y="0" type="line"/>
      <point x="235" y="604" type="line"/>
      <point x="335" y="644" type="line"/>
    </contour>
  </outline>
</glyph>
<glyph name="uni042D" format="2">
  <advance width="736.0"/>
  <unicode hex="042D"/>
  <outline>
    <contour>
      <point x="343" y="42" type="curve" smooth="yes"/>
      <point x="240" y="42"/>
      <point x="189" y="76"/>
      <point x="146" y="106" type="curve"/>
      <point x="184" y="62" type="line"/>
      <point x="107" y="198" type="line"/>
      <point x="90" y="198" type="line"/>
      <point x="101" y="39" type="line"/>
      <point x="160" y="10"/>
      <point x="222" y="-10"/>
      <point x="332" y="-10" type="curve" smooth="yes"/>
      <point x="534" y="-10"/>
      <point x="666" y="134"/>
      <point x="666" y="330" type="curve" smooth="yes"/>
      <point x="666" y="526"/>
      <point x="524" y="670"/>
      <point x="332" y="670" type="curve" smooth="yes"/>
      <point x="232" y="670"/>
      <point x="166" y="652"/>
      <point x="111" y="625" type="curve"/>
      <point x="106" y="450" type="line"/>
      <point x="124" y="450" type="line"/>
      <point x="200" y="602" type="line"/>
      <point x="164" y="557" type="line"/>
      <point x="213" y="608"/>
      <point x="254" y="620"/>
      <point x="315" y="620" type="curve" smooth="yes"/>
      <point x="457" y="620"/>
      <point x="569" y="494"/>
      <point x="569" y="299" type="curve" smooth="yes"/>
      <point x="569" y="141"/>
      <point x="471" y="42"/>
    </contour>
    <contour>
      <point x="266" y="451" type="line"/>
      <point x="250" y="451" type="line"/>
      <point x="250" y="232" type="line"/>
      <point x="266" y="232" type="line"/>
      <point x="316" y="313" type="line"/>
      <point x="631" y="313" type="line"/>
      <point x="631" y="368" type="line"/>
      <point x="316" y="368" type="line"/>
    </contour>
  </outline>
</glyph>
<glyph name="uni042F" format="2">
  <advance width="696.0"/>
  <unicode hex="042F"/>
  <outline>
    <contour>
      <point x="631" y="0" type="line"/>
      <point x="631" y="16" type="line"/>
      <point x="551" y="56" type="line"/>
      <point x="551" y="604" type="line"/>
      <point x="631" y="644" type="line"/>
      <point x="631" y="660" type="line"/>
      <point x="461" y="660" type="line"/>
      <point x="461" y="57" type="line"/>
      <point x="381" y="16" type="line"/>
      <point x="381" y="0" type="line"/>
    </contour>
    <contour>
      <point x="117" y="471" type="curve" smooth="yes"/>
      <point x="117" y="386"/>
      <point x="194" y="304"/>
      <point x="333" y="292" type="curve"/>
      <point x="333" y="283" type="line"/>
      <point x="476" y="283" type="line"/>
      <point x="476" y="338" type="line"/>
      <point x="390" y="338" type="line"/>
      <point x="276" y="338"/>
      <point x="214" y="395"/>
      <point x="214" y="474" type="curve" smooth="yes"/>
      <point x="214" y="555"/>
      <point x="272" y="605"/>
      <point x="397" y="605" type="curve" smooth="yes"/>
      <point x="484" y="605" type="line"/>
      <point x="484" y="660" type="line"/>
      <point x="398" y="660" type="line" smooth="yes"/>
      <point x="203" y="660"/>
      <point x="117" y="594"/>
    </contour>
    <contour>
      <point x="172" y="0" type="line"/>
      <point x="392" y="321" type="line"/>
      <point x="297" y="321" type="line"/>
      <point x="101" y="52" type="line"/>
      <point x="35" y="16" type="line"/>
      <point x="35" y="0" type="line"/>
    </contour>
  </outline>
</glyph>
<glyph name="uni044F" format="2">
  <advance width="535.0"/>
  <unicode hex="044F"/>
  <outline>
    <contour>
      <point x="295" y="0" type="line"/>
      <point x="295" y="16" type="line"/>
      <point x="344" y="48" type="line"/>
      <point x="344" y="450" type="line"/>
      <point x="487" y="450" type="line"/>
      <point x="487" y="434" type="line"/>
      <point x="424" y="402" type="line"/>
      <point x="424" y="48" type="line"/>
      <point x="487" y="16" type="line"/>
      <point x="487" y="0" type="line"/>
    </contour>
    <contour>
      <point x="220" y="228" type="line"/>
      <point x="244" y="199" type="line"/>
      <point x="229" y="209" type="line"/>
      <point x="141.0" y="216.0"/>
      <point x="92.0" y="258.0"/>
      <point x="92" y="319" type="curve" smooth="yes"/>
      <point x="92.0" y="416.0"/>
      <point x="172.0" y="450"/>
      <point x="276" y="450" type="curve" smooth="yes"/>
      <point x="357" y="450" type="line"/>
      <point x="357" y="408" type="line"/>
      <point x="277" y="408" type="line" smooth="yes"/>
      <point x="208" y="408"/>
      <point x="173.0" y="371.0"/>
      <point x="173" y="322" type="curve" smooth="yes"/>
      <point x="173.0" y="275.0"/>
      <point x="204" y="235"/>
      <point x="267" y="235" type="curve" smooth="yes"/>
      <point x="346" y="235" type="line"/>
      <point x="346" y="198" type="line"/>
      <point x="285" y="198" type="line"/>
      <point x="182" y="52" type="line"/>
      <point x="156" y="0" type="line"/>
      <point x="30" y="0" type="line"/>
      <point x="30" y="16" type="line"/>
      <point x="90" y="50" type="line"/>
    </contour>
  </outline>
</glyph>
<glyph name="uni0475" format="2">
  <advance width="490.0"/>
  <unicode hex="0475"/>
  <outline>
    <contour>
      <point x="227" y="0" type="line"/>
      <point x="242" y="0" type="line"/>
      <point x="278" y="83" type="line"/>
      <point x="278" y="119" type="line"/>
      <point x="262" y="119" type="line"/>
      <point x="134" y="398" type="line"/>
      <point x="134" y="404" type="line"/>
      <point x="216" y="434" type="line"/>
      <point x="216" y="450" type="line"/>
      <point x="-23" y="450" type="line"/>
      <point x="-23" y="434" type="line"/>
      <point x="44" y="403" type="line"/>
    </contour>
    <contour>
      <point x="363" y="270" type="line" smooth="yes"/>
      <point x="398" y="352"/>
      <point x="419" y="376"/>
      <point x="476" y="376" type="curve" smooth="yes"/>
      <point x="491" y="376" type="line"/>
      <point x="495" y="380" type="line"/>
      <point x="495" y="430" type="line" smooth="yes"/>
      <point x="495" y="452"/>
      <point x="490" y="459"/>
      <point x="462" y="459" type="curve" smooth="yes"/>
      <point x="422" y="459"/>
      <point x="384" y="432"/>
      <point x="347" y="335" type="curve" smooth="yes"/>
      <point x="235" y="43" type="line"/>
      <point x="235" y="0" type="line"/>
      <point x="248" y="0" type="line"/>
    </contour>
  </outline>
</glyph>
<glyph name="f_f" format="2">
  <advance width="684"/>
  <unicode hex="FB00"/>
  <outline>
    <contour>
      <point x="54.0" y="0.0" type="line"/>
      <point x="268.0" y="0.0" type="line"/>
      <point x="268.0" y="16.0" type="line"/>
      <point x="197.0" y="46.0" type="line"/>
      <point x="197.0" y="530.0" type="line" smooth="yes"/>
      <point x="197.0" y="620.0"/>
      <point x="227" y="675"/>
      <point x="286.0" y="675.0" type="curve" smooth="yes"/>
      <point x="305" y="675"/>
      <point x="324" y="670"/>
      <point x="341" y="664" type="curve" smooth="yes"/>
      <point x="360.0" y="657.0" type="line"/>
      <point x="367.0" y="657.0" type="line"/>
      <point x="387.0" y="709.0" type="line" smooth="yes"/>
      <point x="390" y="716"/>
      <point x="392" y="722"/>
      <point x="392" y="727" type="curve" smooth="yes"/>
      <point x="392" y="734"/>
      <point x="389" y="738"/>
      <point x="379" y="742" type="curve" smooth="yes"/>
      <point x="372.0" y="745.0"/>
      <point x="358" y="750"/>
      <point x="341" y="750" type="curve" smooth="yes"/>
      <point x="202" y="750"/>
      <point x="117.0" y="555.0"/>
      <point x="117.0" y="490.0" type="curve" smooth="yes"/>
      <point x="117.0" y="48.0" type="line"/>
      <point x="54.0" y="16.0" type="line"/>
    </contour>
    <contour>
      <point x="39" y="403" type="line"/>
      <point x="671" y="403" type="line"/>
      <point x="671" y="450" type="line"/>
      <point x="39" y="450" type="line"/>
    </contour>
    <contour>
      <point x="396" y="0" type="line"/>
      <point x="610" y="0" type="line"/>
      <point x="610" y="16" type="line"/>
      <point x="539" y="46" type="line"/>
      <point x="539" y="530" type="line" smooth="yes"/>
      <point x="539" y="622"/>
      <point x="558" y="668"/>
      <point x="631" y="668" type="curve" smooth="yes"/>
      <point x="657" y="668"/>
      <point x="676" y="665"/>
      <point x="696" y="657" type="curve" smooth="yes"/>
      <point x="723" y="646" type="line"/>
      <point x="730" y="646" type="line"/>
      <point x="750" y="695" type="line" smooth="yes"/>
      <point x="753" y="702"/>
      <point x="754" y="708"/>
      <point x="754" y="713" type="curve" smooth="yes"/>
      <point x="754" y="725"/>
      <point x="745" y="733"/>
      <point x="724" y="741" type="curve" smooth="yes"/>
      <point x="715" y="745"/>
      <point x="700" y="750"/>
      <point x="688" y="750" type="curve" smooth="yes"/>
      <point x="546" y="750"/>
      <point x="459" y="555"/>
      <point x="459" y="490" type="curve" smooth="yes"/>
      <point x="459" y="48" type="line"/>
      <point x="396" y="16" type="line"/>
    </contour>
  </outline>
</glyph>
<glyph name="acutecomb.case" format="2">
  <anchor x="-80.0" y="710.0" name="_top"/>
  <outline>
    <contour>
      <point x="-85" y="710" type="line"/>
      <point x="-74" y="710" type="line"/>
      <point x="51" y="799" type="line" smooth="yes"/>
      <point x="80" y="820"/>
      <point x="84" y="842"/>
      <point x="84" y="862" type="curve"/>
      <point x="2" y="862" type="line"/>
    </contour>
  </outline>
</glyph>
<glyph name="ampersand.sc" format="2">
  <advance width="628"/>
  <outline>
    <contour>
      <point x="463" y="-2" type="line"/>
      <point x="608" y="-2" type="line"/>
      <point x="608" y="12" type="line"/>
      <point x="533" y="43" type="line"/>
      <point x="268" y="293" type="line" smooth="yes"/>
      <point x="182" y="373"/>
      <point x="150.0" y="403.0"/>
      <point x="150" y="452" type="curve" smooth="yes"/>
      <point x="150.0" y="501.0"/>
      <point x="185.0" y="530.0"/>
      <point x="228" y="530" type="curve" smooth="yes"/>
      <point x="273.0" y="530.0"/>
      <point x="305.0" y="501.0"/>
      <point x="305" y="456" type="curve" smooth="yes"/>
      <point x="305.0" y="407.0"/>
      <point x="268" y="376"/>
      <point x="206" y="334" type="curve"/>
      <point x="231" y="316" type="line"/>
      <point x="324" y="370"/>
      <point x="382.0" y="406.0"/>
      <point x="382" y="459" type="curve" smooth="yes"/>
      <point x="382.0" y="523.0"/>
      <point x="328.0" y="568.0"/>
      <point x="234" y="568" type="curve" smooth="yes"/>
      <point x="136.0" y="568.0"/>
      <point x="71.0" y="495.0"/>
      <point x="71" y="435" type="curve" smooth="yes"/>
      <point x="71.0" y="376.0"/>
      <point x="87" y="354"/>
      <point x="228" y="220" type="curve" smooth="yes"/>
    </contour>
    <contour>
      <point x="193" y="-10" type="curve" smooth="yes"/>
      <point x="367.0" y="-10.0"/>
      <point x="457.0" y="140.0"/>
      <point x="556" y="362" type="curve"/>
      <point x="529" y="341" type="line"/>
      <point x="628" y="381" type="line"/>
      <point x="628" y="395" type="line"/>
      <point x="413" y="395" type="line"/>
      <point x="413" y="381" type="line"/>
      <point x="502" y="348" type="line"/>
      <point x="437.0" y="157.0"/>
      <point x="354" y="45"/>
      <point x="228" y="45" type="curve" smooth="yes"/>
      <point x="160" y="45"/>
      <point x="103.0" y="86.0"/>
      <point x="103" y="157" type="curve" smooth="yes"/>
      <point x="103.0" y="213.0"/>
      <point x="110" y="240"/>
      <point x="179" y="288" type="curve"/>
      <point x="158" y="307" type="line"/>
      <point x="59.0" y="248.0"/>
      <point x="20.0" y="192.0"/>
      <point x="20" y="137" type="curve" smooth="yes"/>
      <point x="20.0" y="49.0"/>
      <point x="89.0" y="-10.0"/>
    </contour>
  </outline>
</glyph>
<glyph name="caroncomb.alt" format="2">
  <advance width="199"/>
  <anchor x="108" y="740" name="_right"/>
  <outline>
    <contour>
      <point x="50" y="553" type="line"/>
      <point x="61" y="553" type="line"/>
      <point x="135" y="675" type="line" smooth="yes"/>
      <point x="152" y="703"/>
      <point x="150" y="722"/>
      <point x="146" y="740" type="curve"/>
      <point x="71" y="740" type="line"/>
    </contour>
  </outline>
</glyph>
<glyph name="circumflexcomb.case" format="2">
  <anchor x="0.0" y="710.0" name="_top"/>
  <outline>
    <contour>
      <point x="-147" y="710" type="line"/>
      <point x="-136" y="710" type="line"/>
      <point x="39" y="807" type="line"/>
      <point x="-39" y="807" type="line"/>
      <point x="136" y="710" type="line"/>
      <point x="147" y="710" type="line"/>
      <point x="15" y="862" type="line"/>
      <point x="-15" y="862" type="line"/>
    </contour>
  </outline>
</glyph>
<glyph name="cyrbreve.case" format="2">
  <outline>
    <contour>
      <point x="0" y="710" type="curve" smooth="yes"/>
      <point x="112.388888889" y="710.0"/>
      <point x="170.0" y="778.0"/>
      <point x="170" y="862" type="curve"/>
      <point x="84" y="862" type="line"/>
      <point x="84.0" y="799.452380952"/>
      <point x="61.0" y="751.0"/>
      <point x="0" y="751" type="curve" smooth="yes"/>
      <point x="-61.0" y="751.0"/>
      <point x="-84.0" y="799.452380952"/>
      <point x="-84" y="862" type="curve"/>
      <point x="-170" y="862" type="line"/>
      <point x="-170.0" y="778.0"/>
      <point x="-112.388888889" y="710.0"/>
    </contour>
  </outline>
</glyph>
<glyph name="cyrbreve" format="2">
  <anchor x="0.0" y="502.0" name="_top"/>
  <outline>
    <contour>
      <point x="-168" y="707" type="line"/>
      <point x="-168" y="610"/>
      <point x="-109" y="540"/>
      <point x="0" y="540" type="curve" smooth="yes"/>
      <point x="109" y="540"/>
      <point x="168" y="610"/>
      <point x="168" y="707" type="curve"/>
      <point x="82" y="707" type="line"/>
      <point x="82.0" y="630.7446808510638"/>
      <point x="56.99999999999999" y="579.0"/>
      <point x="0" y="579" type="curve" smooth="yes"/>
      <point x="-56.99999999999999" y="579.0"/>
      <point x="-82.0" y="630.7446808510638"/>
      <point x="-82" y="707" type="curve"/>
    </contour>
  </outline>
</glyph>
<glyph name="cyrbrevecomb" format="2">
  <anchor x="0.0" y="502.0" name="_top"/>
  <outline>
    <contour>
      <point x="-168" y="707" type="curve"/>
      <point x="-82" y="707" type="line"/>
      <point x="-82.0" y="623.0"/>
      <point x="-57.0" y="579.0"/>
      <point x="0" y="579" type="curve" smooth="yes"/>
      <point x="57.0" y="579.0"/>
      <point x="82.0" y="623.0"/>
      <point x="82" y="707" type="curve"/>
      <point x="168" y="707" type="line"/>
      <point x="168.0" y="606.0"/>
      <point x="109.0" y="540.0"/>
      <point x="0" y="540" type="curve" smooth="yes"/>
      <point x="-109.0" y="540.0"/>
      <point x="-168.0" y="606.0"/>
    </contour>
  </outline>
</glyph>
<glyph name="gravecomb.case" format="2">
  <anchor x="79.0" y="710.0" name="_top"/>
  <outline>
    <contour>
      <point x="73" y="710" type="line"/>
      <point x="84" y="710" type="line"/>
      <point x="-3" y="862" type="line"/>
      <point x="-85" y="862" type="line"/>
      <point x="-85" y="842"/>
      <point x="-81" y="820"/>
      <point x="-52" y="799" type="curve" smooth="yes"/>
    </contour>
  </outline>
</glyph>
<glyph name="i.sc" format="2">
  <advance width="359"/>
  <anchor x="180" y="615" name="top"/>
  <anchor x="180" y="0" name="bottom"/>
  <anchor x="196" y="0" name="right"/>
  <outline>
    <contour>
      <point x="70" y="0" type="line"/>
      <point x="289" y="0" type="line"/>
      <point x="289" y="16" type="line"/>
      <point x="221" y="49" type="line"/>
      <point x="221" y="511" type="line"/>
      <point x="289" y="544" type="line"/>
      <point x="289" y="560" type="line"/>
      <point x="70" y="560" type="line"/>
      <point x="70" y="544" type="line"/>
      <point x="136" y="511" type="line"/>
      <point x="136" y="49" type="line"/>
      <point x="70" y="16" type="line"/>
    </contour>
  </outline>
</glyph>
<glyph name="macroncomb.case" format="2">
  <anchor x="0.0" y="710.0" name="_top"/>
  <outline>
    <contour>
      <point x="-133" y="764" type="line"/>
      <point x="133" y="764" type="line"/>
      <point x="133" y="814" type="line"/>
      <point x="-133" y="814" type="line"/>
    </contour>
  </outline>
</glyph>
<glyph name="o.sc" format="2">
  <advance width="712"/>
  <anchor x="346" y="615" name="top"/>
  <anchor x="368" y="0" name="bottom"/>
  <anchor x="380" y="0" name="right"/>
  <outline>
    <contour>
      <point x="355" y="-10" type="curve" smooth="yes"/>
      <point x="520" y="-10"/>
      <point x="642" y="112"/>
      <point x="642" y="280" type="curve" smooth="yes"/>
      <point x="642" y="448"/>
      <point x="520" y="571"/>
      <point x="355" y="571" type="curve" smooth="yes"/>
      <point x="191" y="571"/>
      <point x="70" y="448"/>
      <point x="70" y="280" type="curve" smooth="yes"/>
      <point x="70" y="112"/>
      <point x="191" y="-10"/>
    </contour>
    <contour>
      <point x="372" y="40" type="curve" smooth="yes"/>
      <point x="244.0" y="40.0"/>
      <point x="156.0" y="148.0"/>
      <point x="156" y="308" type="curve" smooth="yes"/>
      <point x="156.0" y="437.0"/>
      <point x="227.0" y="521.0"/>
      <point x="342" y="521" type="curve" smooth="yes"/>
      <point x="468.0" y="521.0"/>
      <point x="556.0" y="414.0"/>
      <point x="556" y="255" type="curve" smooth="yes"/>
      <point x="556.0" y="125.0"/>
      <point x="487.0" y="40.0"/>
    </contour>
  </outline>
</glyph>
<glyph name="s.sc" format="2">
  <advance width="491"/>
  <anchor x="253" y="615" name="top"/>
  <anchor x="253" y="0" name="bottom"/>
  <outline>
    <contour>
      <point x="239" y="-10" type="curve" smooth="yes"/>
      <point x="352" y="-10"/>
      <point x="436.0" y="55.0"/>
      <point x="436" y="147" type="curve" smooth="yes"/>
      <point x="436.0" y="233.0"/>
      <point x="394.0" y="264.0"/>
      <point x="280" y="318" type="curve" smooth="yes"/>
      <point x="193.0" y="360.0"/>
      <point x="155.0" y="379.0"/>
      <point x="155" y="433" type="curve" smooth="yes"/>
      <point x="155.0" y="488.0"/>
      <point x="195.0" y="524.0"/>
      <point x="262" y="524" type="curve" smooth="yes"/>
      <point x="305" y="524"/>
      <point x="333" y="510"/>
      <point x="371" y="475" type="curve"/>
      <point x="338" y="530" type="line"/>
      <point x="397" y="404" type="line"/>
      <point x="413" y="404" type="line"/>
      <point x="406" y="534" type="line"/>
      <point x="361" y="556"/>
      <point x="316" y="571"/>
      <point x="261" y="571" type="curve" smooth="yes"/>
      <point x="164" y="571"/>
      <point x="81" y="496"/>
      <point x="81" y="412" type="curve" smooth="yes"/>
      <point x="81" y="339"/>
      <point x="115" y="305"/>
      <point x="199" y="265" type="curve" smooth="yes"/>
      <point x="304.0" y="215.0"/>
      <point x="363.0" y="203.0"/>
      <point x="363" y="132" type="curve" smooth="yes"/>
      <point x="363.0" y="67.6451612903"/>
      <point x="321.0" y="37.0"/>
      <point x="245" y="37" type="curve" smooth="yes"/>
      <point x="199" y="37"/>
      <point x="155" y="48"/>
      <point x="113" y="84" type="curve"/>
      <point x="145" y="34" type="line"/>
      <point x="76" y="166" type="line"/>
      <point x="60" y="166" type="line"/>
      <point x="69" y="31" type="line"/>
      <point x="122.0" y="5.0"/>
      <point x="168" y="-10"/>
    </contour>
  </outline>
</glyph>
<glyph name="s_p" format="2">
  <advance width="999"/>
  <outline>
    <contour>
      <point x="213.0" y="-10.0" type="curve" smooth="yes"/>
      <point x="279.0" y="-10.0"/>
      <point x="364.0" y="37.0"/>
      <point x="364.0" y="126.0" type="curve" smooth="yes"/>
      <point x="364.0" y="220.0"/>
      <point x="299.0" y="239.0"/>
      <point x="242.0" y="266.0" type="curve" smooth="yes"/>
      <point x="179.0" y="295.0"/>
      <point x="146.0" y="312.0"/>
      <point x="146.0" y="357.0" type="curve" smooth="yes"/>
      <point x="146.0" y="397.0"/>
      <point x="176.0" y="421.0"/>
      <point x="221.0" y="421.0" type="curve" smooth="yes"/>
      <point x="252.0" y="421.0"/>
      <point x="279.0" y="406.0"/>
      <point x="301.0" y="370.0" type="curve" smooth="yes"/>
      <point x="334.0" y="317.0" type="line"/>
      <point x="348.0" y="317.0" type="line"/>
      <point x="348" y="426" type="line"/>
      <point x="305" y="471"/>
      <point x="285.0" y="515.0"/>
      <point x="285" y="557" type="curve" smooth="yes"/>
      <point x="285.0" y="659.0"/>
      <point x="349.0" y="711.0"/>
      <point x="470" y="711" type="curve" smooth="yes"/>
      <point x="510" y="711"/>
      <point x="561" y="702"/>
      <point x="611" y="685" type="curve"/>
      <point x="543" y="739" type="line"/>
      <point x="543.0" y="-182.0" type="line"/>
      <point x="480.0" y="-214.0" type="line"/>
      <point x="480.0" y="-230.0" type="line"/>
      <point x="694.0" y="-230.0" type="line"/>
      <point x="694.0" y="-214.0" type="line"/>
      <point x="623.0" y="-182.0" type="line"/>
      <point x="623" y="737" type="line"/>
      <point x="574" y="746"/>
      <point x="527" y="750"/>
      <point x="487" y="750" type="curve" smooth="yes"/>
      <point x="341.0" y="750.0"/>
      <point x="249.0" y="681.0"/>
      <point x="249" y="555" type="curve" smooth="yes"/>
      <point x="249.0" y="496.0"/>
      <point x="285" y="438"/>
      <point x="323" y="417" type="curve"/>
      <point x="326.0" y="437.0" type="line"/>
      <point x="291.0" y="451.0"/>
      <point x="257.0" y="460.0"/>
      <point x="217.0" y="460.0" type="curve" smooth="yes"/>
      <point x="147.0" y="460.0"/>
      <point x="75.0" y="401.0"/>
      <point x="75.0" y="327.0" type="curve" smooth="yes"/>
      <point x="75.0" y="260.0"/>
      <point x="113.0" y="230.0"/>
      <point x="181.0" y="199.0" type="curve" smooth="yes"/>
      <point x="250.0" y="167.0"/>
      <point x="295.0" y="154.0"/>
      <point x="295.0" y="97.0" type="curve" smooth="yes"/>
      <point x="295.0" y="53.0"/>
      <point x="264.0" y="26.0"/>
      <point x="210.0" y="26.0" type="curve" smooth="yes"/>
      <point x="162.0" y="26.0"/>
      <point x="130.0" y="44.0"/>
      <point x="109.0" y="81.0" type="curve" smooth="yes"/>
      <point x="77.0" y="136.0" type="line"/>
      <point x="63.0" y="136.0" type="line"/>
      <point x="63.0" y="24.0" type="line"/>
      <point x="110.0" y="0.0"/>
      <point x="150.0" y="-10.0"/>
    </contour>
    <contour>
      <point x="724" y="-10" type="curve"/>
      <point x="849" y="-10"/>
      <point x="951" y="83"/>
      <point x="951" y="247" type="curve" smooth="yes"/>
      <point x="951" y="379"/>
      <point x="878" y="460"/>
      <point x="777" y="460" type="curve" smooth="yes"/>
      <point x="723" y="460"/>
      <point x="679" y="442"/>
      <point x="628" y="399" type="curve"/>
      <point x="613" y="399" type="line"/>
      <point x="613" y="354" type="line"/>
      <point x="647" y="379"/>
      <point x="686" y="391"/>
      <point x="722" y="391" type="curve" smooth="yes"/>
      <point x="804" y="391"/>
      <point x="871" y="337"/>
      <point x="871" y="214" type="curve" smooth="yes"/>
      <point x="871" y="87"/>
      <point x="817" y="38"/>
      <point x="753" y="38" type="curve" smooth="yes"/>
      <point x="698" y="38"/>
      <point x="656" y="50"/>
      <point x="613" y="88" type="curve"/>
      <point x="563" y="20" type="line"/>
      <point x="606" y="1"/>
      <point x="657" y="-10"/>
    </contour>
  </outline>
</glyph>
<glyph name="t.sc" format="2">
  <advance width="614"/>
  <anchor x="307" y="615" name="top"/>
  <anchor x="307" y="0" name="bottom"/>
  <outline>
    <contour>
      <point x="175" y="0" type="line"/>
      <point x="439" y="0" type="line"/>
      <point x="439" y="16" type="line"/>
      <point x="349" y="49" type="line"/>
      <point x="349" y="510" type="line"/>
      <point x="503" y="510" type="line"/>
      <point x="553" y="393" type="line"/>
      <point x="569" y="393" type="line"/>
      <point x="569" y="560" type="line"/>
      <point x="45" y="560" type="line"/>
      <point x="45" y="393" type="line"/>
      <point x="61" y="393" type="line"/>
      <point x="110" y="510" type="line"/>
      <point x="264" y="510" type="line"/>
      <point x="264" y="49" type="line"/>
      <point x="175" y="16" type="line"/>
    </contour>
  </outline>
</glyph>
<glyph name="two.OT" format="2">
  <advance width="500"/>
  <outline>
    <contour>
      <point x="59" y="0" type="line"/>
      <point x="434" y="0" type="line"/>
      <point x="444" y="164" type="line"/>
      <point x="428" y="164" type="line"/>
      <point x="378" y="67" type="line"/>
      <point x="137" y="67" type="line"/>
      <point x="137" y="52" type="line"/>
      <point x="284.0" y="186.0"/>
      <point x="419.0" y="256.0"/>
      <point x="419" y="382" type="curve" smooth="yes"/>
      <point x="419.0" y="472.0"/>
      <point x="361.0" y="540.0"/>
      <point x="252" y="540" type="curve" smooth="yes"/>
      <point x="174.0" y="540.0"/>
      <point x="99" y="490"/>
      <point x="56" y="392" type="curve"/>
      <point x="90" y="376" type="line"/>
      <point x="116.0" y="437.0"/>
      <point x="154.0" y="469.0"/>
      <point x="218" y="469" type="curve" smooth="yes"/>
      <point x="290.0" y="469.0"/>
      <point x="323.0" y="416.0"/>
      <point x="323" y="361" type="curve" smooth="yes"/>
      <point x="323.0" y="263.0"/>
      <point x="257.0" y="212.0"/>
      <point x="59" y="25" type="curve"/>
    </contour>
  </outline>
</glyph>
<glyph name="u.sc" format="2">
  <advance width="737"/>
  <anchor x="378" y="615" name="top"/>
  <anchor x="366" y="0" name="bottom"/>
  <anchor x="392" y="0" name="right"/>
  <outline>
    <contour>
      <point x="371" y="-10" type="curve" smooth="yes"/>
      <point x="504" y="-10"/>
      <point x="601" y="53"/>
      <point x="601" y="214" type="curve" smooth="yes"/>
      <point x="601" y="512" type="line"/>
      <point x="672" y="544" type="line"/>
      <point x="672" y="560" type="line"/>
      <point x="458" y="560" type="line"/>
      <point x="458" y="544" type="line"/>
      <point x="544" y="513" type="line"/>
      <point x="544" y="200" type="line" smooth="yes"/>
      <point x="544" y="93"/>
      <point x="473" y="43"/>
      <point x="385" y="43" type="curve" smooth="yes"/>
      <point x="285" y="43"/>
      <point x="222" y="89"/>
      <point x="222" y="221" type="curve" smooth="yes"/>
      <point x="222" y="511" type="line"/>
      <point x="294" y="544" type="line"/>
      <point x="294" y="560" type="line"/>
      <point x="65" y="560" type="line"/>
      <point x="65" y="544" type="line"/>
      <point x="137" y="511" type="line"/>
      <point x="137" y="214" type="line" smooth="yes"/>
      <point x="137" y="53"/>
      <point x="236" y="-10"/>
    </contour>
  </outline>
</glyph>
<glyph name="uni0414.bgr" format="2">
  <advance width="696"/>
  <outline>
    <contour>
      <point x="362" y="665" type="line"/>
      <point x="327" y="665" type="line"/>
      <point x="62" y="28" type="line"/>
      <point x="141" y="54" type="line"/>
      <point x="345" y="561" type="line"/>
      <point x="307" y="516" type="line"/>
      <point x="352" y="516" type="line"/>
      <point x="314" y="561" type="line"/>
      <point x="524" y="46" type="line"/>
      <point x="624" y="28" type="line"/>
    </contour>
    <contour>
      <point x="5" y="55" type="line"/>
      <point x="5" y="-167" type="line"/>
      <point x="21" y="-167" type="line"/>
      <point x="99" y="0" type="line"/>
      <point x="597" y="0" type="line"/>
      <point x="675" y="-167" type="line"/>
      <point x="691" y="-167" type="line"/>
      <point x="691" y="55" type="line"/>
    </contour>
  </outline>
</glyph>
<glyph name="uni0434.bgr" format="2">
  <advance width="558"/>
  <outline>
    <contour>
      <point x="376" y="-41" type="line" smooth="yes"/>
      <point x="376" y="-145.0"/>
      <point x="349" y="-196"/>
      <point x="269" y="-196" type="curve" smooth="yes"/>
      <point x="225" y="-196"/>
      <point x="196" y="-178"/>
      <point x="176" y="-151" type="curve" smooth="yes"/>
      <point x="142" y="-105" type="line"/>
      <point x="135" y="-105" type="line"/>
      <point x="97" y="-137" type="line" smooth="yes"/>
      <point x="87" y="-145"/>
      <point x="84" y="-151"/>
      <point x="84" y="-161" type="curve" smooth="yes"/>
      <point x="84" y="-169"/>
      <point x="89" y="-178"/>
      <point x="100" y="-191" type="curve" smooth="yes"/>
      <point x="126" y="-220"/>
      <point x="182" y="-240"/>
      <point x="236" y="-240" type="curve" smooth="yes"/>
      <point x="373" y="-240"/>
      <point x="456" y="-144.0"/>
      <point x="456" y="5" type="curve" smooth="yes"/>
      <point x="456" y="460" type="line"/>
      <point x="450" y="460" type="line"/>
      <point x="382" y="427" type="line"/>
      <point x="439" y="427" type="line"/>
      <point x="384" y="447"/>
      <point x="347" y="460"/>
      <point x="289" y="460" type="curve" smooth="yes"/>
      <point x="159" y="460"/>
      <point x="48" y="364"/>
      <point x="48" y="194" type="curve" smooth="yes"/>
      <point x="48" y="68"/>
      <point x="121" y="-10"/>
      <point x="222" y="-10" type="curve" smooth="yes"/>
      <point x="275" y="-10"/>
      <point x="324" y="10"/>
      <point x="370" y="50" type="curve"/>
      <point x="388" y="50" type="line"/>
      <point x="388" y="97" type="line"/>
      <point x="355" y="72"/>
      <point x="310" y="59"/>
      <point x="277" y="59" type="curve" smooth="yes"/>
      <point x="195" y="59"/>
      <point x="128" y="107"/>
      <point x="128" y="217" type="curve" smooth="yes"/>
      <point x="128" y="357"/>
      <point x="191" y="411"/>
      <point x="266" y="411" type="curve" smooth="yes"/>
      <point x="302" y="411"/>
      <point x="336" y="405"/>
      <point x="364" y="381" type="curve" smooth="yes"/>
      <point x="375" y="372"/>
      <point x="376" y="370"/>
      <point x="376" y="321" type="curve" smooth="yes"/>
    </contour>
  </outline>
</glyph>
<glyph name="uni0434.sc" format="2">
  <advance width="656"/>
  <outline>
    <contour>
      <point x="173" y="510" type="line"/>
      <point x="475" y="510" type="line"/>
      <point x="475" y="560" type="line"/>
      <point x="173" y="560" type="line"/>
    </contour>
    <contour>
      <point x="148" y="35" type="line"/>
      <point x="199" y="160"/>
      <point x="216" y="283"/>
      <point x="216" y="473" type="curve" smooth="yes"/>
      <point x="216" y="560" type="line"/>
      <point x="89" y="560" type="line"/>
      <point x="89" y="544" type="line"/>
      <point x="159" y="511" type="line"/>
      <point x="159" y="473" type="line" smooth="yes"/>
      <point x="159" y="285"/>
      <point x="142" y="160"/>
      <point x="87" y="35" type="curve"/>
    </contour>
    <contour>
      <point x="432" y="50" type="line"/>
      <point x="25" y="50" type="line"/>
      <point x="25" y="-142" type="line"/>
      <point x="41" y="-142" type="line"/>
      <point x="110" y="0" type="line"/>
      <point x="516" y="0" type="line"/>
      <point x="585" y="-142" type="line"/>
      <point x="601" y="-142" type="line"/>
      <point x="601" y="50" type="line"/>
      <point x="517" y="50" type="line"/>
      <point x="517" y="511" type="line"/>
      <point x="587" y="544" type="line"/>
      <point x="587" y="560" type="line"/>
      <point x="432" y="560" type="line"/>
    </contour>
  </outline>
</glyph>
<glyph name="uni043B.sc" format="2">
  <advance width="657"/>
  <outline>
    <contour>
      <point x="184" y="510" type="line"/>
      <point x="478" y="510" type="line"/>
      <point x="478" y="560" type="line"/>
      <point x="184" y="560" type="line"/>
    </contour>
    <contour>
      <point x="361" y="0" type="line"/>
      <point x="590" y="0" type="line"/>
      <point x="590" y="16" type="line"/>
      <point x="520" y="49" type="line"/>
      <point x="520" y="511" type="line"/>
      <point x="590" y="544" type="line"/>
      <point x="590" y="560" type="line"/>
      <point x="435" y="560" type="line"/>
      <point x="435" y="49" type="line"/>
      <point x="361" y="16" type="line"/>
    </contour>
    <contour>
      <point x="227" y="470" type="curve" smooth="yes"/>
      <point x="227" y="560" type="line"/>
      <point x="100" y="560" type="line"/>
      <point x="100" y="543" type="line"/>
      <point x="170" y="511" type="line"/>
      <point x="170" y="470" type="line" smooth="yes"/>
      <point x="170" y="220"/>
      <point x="145" y="73"/>
      <point x="50" y="73" type="curve" smooth="yes"/>
      <point x="41" y="73" type="line"/>
      <point x="37" y="69" type="line"/>
      <point x="37" y="16" type="line" smooth="yes"/>
      <point x="37" y="-3"/>
      <point x="46" y="-8"/>
      <point x="68" y="-8" type="curve" smooth="yes"/>
      <point x="101" y="-8"/>
      <point x="143" y="7"/>
      <point x="175" y="78" type="curve" smooth="yes"/>
      <point x="211.35789519072796" y="161.8251472452895"/>
      <point x="227" y="279.0"/>
    </contour>
  </outline>
</glyph>
<glyph name="uni044C.bgr" format="2">
  <advance width="490.0"/>
  <outline>
    <contour>
      <point x="91" y="148" type="line" smooth="yes"/>
      <point x="91" y="25"/>
      <point x="179" y="-10"/>
      <point x="269" y="-10" type="curve" smooth="yes"/>
      <point x="387.0" y="-10.0"/>
      <point x="460.0" y="69.0"/>
      <point x="460" y="145" type="curve" smooth="yes"/>
      <point x="460.0" y="234.0"/>
      <point x="377.0" y="287"/>
      <point x="245" y="287" type="curve" smooth="yes"/>
      <point x="158" y="287" type="line"/>
      <point x="158" y="239" type="line"/>
      <point x="245" y="239" type="line" smooth="yes"/>
      <point x="332.0" y="239"/>
      <point x="370.0" y="188.0"/>
      <point x="370" y="137" type="curve" smooth="yes"/>
      <point x="370" y="87"/>
      <point x="333" y="37"/>
      <point x="270" y="37" type="curve" smooth="yes"/>
      <point x="192" y="37"/>
      <point x="171" y="87"/>
      <point x="171" y="142" type="curve" smooth="yes"/>
      <point x="171" y="450" type="line"/>
      <point x="28" y="450" type="line"/>
      <point x="28" y="434" type="line"/>
      <point x="91" y="403" type="line"/>
    </contour>
  </outline>
</glyph>
<glyph name="uni20B4.OT" format="2">
  <advance width="500"/>
  <outline>
    <contour>
      <point x="50" y="317" type="line"/>
      <point x="450" y="317" type="line"/>
      <point x="450" y="355" type="line"/>
      <point x="50" y="355" type="line"/>
    </contour>
    <contour>
      <point x="50" y="187" type="line"/>
      <point x="450" y="187" type="line"/>
      <point x="450" y="225" type="line"/>
      <point x="50" y="225" type="line"/>
    </contour>
    <contour>
      <point x="101" y="199" type="line"/>
      <point x="83.0" y="182.0"/>
      <point x="69.0" y="163.0"/>
      <point x="69" y="122" type="curve" smooth="yes"/>
      <point x="69.0" y="41.0"/>
      <point x="149.0" y="-10.0"/>
      <point x="255" y="-10" type="curve" smooth="yes"/>
      <point x="322.0" y="-10.0"/>
      <point x="374.0" y="2.0"/>
      <point x="415" y="34" type="curve"/>
      <point x="425" y="147" type="line"/>
      <point x="406" y="147" type="line"/>
      <point x="345" y="39" type="line"/>
      <point x="381" y="66" type="line"/>
      <point x="354.0" y="44.0"/>
      <point x="308" y="34"/>
      <point x="268" y="34" type="curve" smooth="yes"/>
      <point x="182" y="34"/>
      <point x="149" y="83"/>
      <point x="149" y="117" type="curve" smooth="yes"/>
      <point x="149.0" y="168.0"/>
      <point x="170" y="177"/>
      <point x="238" y="214" type="curve"/>
    </contour>
    <contour>
      <point x="407" y="349" type="line"/>
      <point x="414.0" y="363.0"/>
      <point x="424.0" y="383.0"/>
      <point x="424" y="426" type="curve" smooth="yes"/>
      <point x="424.0" y="499.0"/>
      <point x="362" y="540"/>
      <point x="265" y="540" type="curve" smooth="yes"/>
      <point x="226" y="540"/>
      <point x="173" y="536"/>
      <point x="120" y="507" type="curve"/>
      <point x="106" y="402" type="line"/>
      <point x="132" y="402" type="line"/>
      <point x="202" y="491" type="line"/>
      <point x="187" y="484" type="line"/>
      <point x="208" y="493"/>
      <point x="237" y="495"/>
      <point x="256" y="495" type="curve" smooth="yes"/>
      <point x="316" y="495"/>
      <point x="340" y="465"/>
      <point x="340" y="417" type="curve" smooth="yes"/>
      <point x="340" y="387"/>
      <point x="329" y="363"/>
      <point x="310" y="345" type="curve"/>
    </contour>
  </outline>
</glyph>
<glyph name="z.sc" format="2">
  <advance width="605"/>
  <anchor x="311" y="615" name="top"/>
  <anchor x="311" y="0" name="bottom"/>
  <outline>
    <contour>
      <point x="90" y="0" type="line"/>
      <point x="515" y="0" type="line"/>
      <point x="515" y="167" type="line"/>
      <point x="499" y="167" type="line"/>
      <point x="449" y="50" type="line"/>
      <point x="182" y="50" type="line"/>
      <point x="182" y="17" type="line"/>
      <point x="505" y="540" type="line"/>
      <point x="505" y="560" type="line"/>
      <point x="100" y="560" type="line"/>
      <point x="100" y="402" type="line"/>
      <point x="116" y="402" type="line"/>
      <point x="164" y="510" type="line"/>
      <point x="409" y="510" type="line"/>
      <point x="409" y="537" type="line"/>
      <point x="90" y="20" type="line"/>
    </contour>
  </outline>
</glyph>
